<mxfile host="app.diagrams.net" modified="2023-10-14T16:07:56.099Z" agent="Mozilla/5.0 (Windows NT 10.0; Win64; x64) AppleWebKit/537.36 (KHTML, like Gecko) Chrome/117.0.0.0 Safari/537.36" etag="V3BwuGN2KH0aUFAIhkiH" version="22.0.4" type="github">
  <diagram id="C5RBs43oDa-KdzZeNtuy" name="Page-1">
    <mxGraphModel dx="1050" dy="534" grid="1" gridSize="10" guides="1" tooltips="1" connect="1" arrows="1" fold="1" page="1" pageScale="1" pageWidth="827" pageHeight="1169" math="0" shadow="0">
      <root>
        <mxCell id="WIyWlLk6GJQsqaUBKTNV-0" />
        <mxCell id="WIyWlLk6GJQsqaUBKTNV-1" parent="WIyWlLk6GJQsqaUBKTNV-0" />
        <mxCell id="WIyWlLk6GJQsqaUBKTNV-3" value="Inicio&amp;nbsp;" style="rounded=1;whiteSpace=wrap;html=1;fontSize=12;glass=0;strokeWidth=1;shadow=0;fillColor=#fff2cc;strokeColor=#d6b656;" parent="WIyWlLk6GJQsqaUBKTNV-1" vertex="1">
          <mxGeometry x="317" y="30" width="120" height="40" as="geometry" />
        </mxCell>
        <mxCell id="WIyWlLk6GJQsqaUBKTNV-4" value="Yes" style="rounded=0;html=1;jettySize=auto;orthogonalLoop=1;fontSize=11;endArrow=block;endFill=0;endSize=8;strokeWidth=1;shadow=0;labelBackgroundColor=none;edgeStyle=orthogonalEdgeStyle;exitX=0.544;exitY=0.943;exitDx=0;exitDy=0;exitPerimeter=0;" parent="WIyWlLk6GJQsqaUBKTNV-1" source="WIyWlLk6GJQsqaUBKTNV-6" target="WIyWlLk6GJQsqaUBKTNV-10" edge="1">
          <mxGeometry y="20" relative="1" as="geometry">
            <mxPoint as="offset" />
            <mxPoint x="392" y="420" as="sourcePoint" />
          </mxGeometry>
        </mxCell>
        <mxCell id="WIyWlLk6GJQsqaUBKTNV-5" value="No" style="edgeStyle=orthogonalEdgeStyle;rounded=0;html=1;jettySize=auto;orthogonalLoop=1;fontSize=11;endArrow=block;endFill=0;endSize=8;strokeWidth=1;shadow=0;labelBackgroundColor=none;" parent="WIyWlLk6GJQsqaUBKTNV-1" source="WIyWlLk6GJQsqaUBKTNV-6" target="WIyWlLk6GJQsqaUBKTNV-7" edge="1">
          <mxGeometry y="10" relative="1" as="geometry">
            <mxPoint as="offset" />
          </mxGeometry>
        </mxCell>
        <mxCell id="WIyWlLk6GJQsqaUBKTNV-6" value="¿la ruta es absoluta?" style="rhombus;whiteSpace=wrap;html=1;shadow=0;fontFamily=Helvetica;fontSize=12;align=center;strokeWidth=1;spacing=6;spacingTop=-4;fillColor=#d5e8d4;strokeColor=#82b366;" parent="WIyWlLk6GJQsqaUBKTNV-1" vertex="1">
          <mxGeometry x="302" y="260" width="150" height="120" as="geometry" />
        </mxCell>
        <mxCell id="WIyWlLk6GJQsqaUBKTNV-7" value="convertir la ruta a absoluta usando path.resolve()" style="rounded=1;whiteSpace=wrap;html=1;fontSize=12;glass=0;strokeWidth=1;shadow=0;fillColor=#dae8fc;strokeColor=#6c8ebf;" parent="WIyWlLk6GJQsqaUBKTNV-1" vertex="1">
          <mxGeometry x="510" y="330" width="160" height="60" as="geometry" />
        </mxCell>
        <mxCell id="WIyWlLk6GJQsqaUBKTNV-8" value="No" style="rounded=0;html=1;jettySize=auto;orthogonalLoop=1;fontSize=11;endArrow=block;endFill=0;endSize=8;strokeWidth=1;shadow=0;labelBackgroundColor=none;edgeStyle=orthogonalEdgeStyle;" parent="WIyWlLk6GJQsqaUBKTNV-1" source="WIyWlLk6GJQsqaUBKTNV-10" target="WIyWlLk6GJQsqaUBKTNV-11" edge="1">
          <mxGeometry x="0.3333" y="20" relative="1" as="geometry">
            <mxPoint as="offset" />
          </mxGeometry>
        </mxCell>
        <mxCell id="WIyWlLk6GJQsqaUBKTNV-9" value="Yes" style="edgeStyle=orthogonalEdgeStyle;rounded=0;html=1;jettySize=auto;orthogonalLoop=1;fontSize=11;endArrow=block;endFill=0;endSize=8;strokeWidth=1;shadow=0;labelBackgroundColor=none;" parent="WIyWlLk6GJQsqaUBKTNV-1" source="WIyWlLk6GJQsqaUBKTNV-10" target="KiQfL299b6SE2R_KNF0I-17" edge="1">
          <mxGeometry y="10" relative="1" as="geometry">
            <mxPoint as="offset" />
            <mxPoint x="278.72000000000025" y="585" as="targetPoint" />
          </mxGeometry>
        </mxCell>
        <mxCell id="WIyWlLk6GJQsqaUBKTNV-10" value="¿Verificar si la ruta existe?&amp;nbsp;" style="rhombus;whiteSpace=wrap;html=1;shadow=0;fontFamily=Helvetica;fontSize=12;align=center;strokeWidth=1;spacing=6;spacingTop=-4;fillColor=#d5e8d4;strokeColor=#82b366;" parent="WIyWlLk6GJQsqaUBKTNV-1" vertex="1">
          <mxGeometry x="210" y="420" width="137.45" height="120" as="geometry" />
        </mxCell>
        <mxCell id="WIyWlLk6GJQsqaUBKTNV-11" value="Rechazar la promesa con un error&amp;nbsp;" style="rounded=1;whiteSpace=wrap;html=1;fontSize=12;glass=0;strokeWidth=1;shadow=0;fillColor=#f8cecc;strokeColor=#b85450;" parent="WIyWlLk6GJQsqaUBKTNV-1" vertex="1">
          <mxGeometry x="40" y="510" width="120" height="40" as="geometry" />
        </mxCell>
        <mxCell id="KiQfL299b6SE2R_KNF0I-3" value="leer ruta&amp;nbsp;" style="rounded=0;whiteSpace=wrap;html=1;fillColor=#dae8fc;strokeColor=#6c8ebf;" vertex="1" parent="WIyWlLk6GJQsqaUBKTNV-1">
          <mxGeometry x="309" y="180" width="136" height="60" as="geometry" />
        </mxCell>
        <mxCell id="KiQfL299b6SE2R_KNF0I-2" value="Craar promesa mdLinks new promise()&amp;nbsp;" style="rounded=0;whiteSpace=wrap;html=1;fillColor=#dae8fc;strokeColor=#6c8ebf;" vertex="1" parent="WIyWlLk6GJQsqaUBKTNV-1">
          <mxGeometry x="294" y="100" width="170" height="60" as="geometry" />
        </mxCell>
        <mxCell id="KiQfL299b6SE2R_KNF0I-5" value="" style="endArrow=classic;html=1;rounded=0;" edge="1" parent="WIyWlLk6GJQsqaUBKTNV-1" source="WIyWlLk6GJQsqaUBKTNV-3" target="KiQfL299b6SE2R_KNF0I-2">
          <mxGeometry width="50" height="50" relative="1" as="geometry">
            <mxPoint x="380" y="110" as="sourcePoint" />
            <mxPoint x="430" y="60" as="targetPoint" />
          </mxGeometry>
        </mxCell>
        <mxCell id="KiQfL299b6SE2R_KNF0I-6" value="" style="endArrow=classic;html=1;rounded=0;" edge="1" parent="WIyWlLk6GJQsqaUBKTNV-1" source="KiQfL299b6SE2R_KNF0I-2" target="KiQfL299b6SE2R_KNF0I-3">
          <mxGeometry width="50" height="50" relative="1" as="geometry">
            <mxPoint x="390" y="200" as="sourcePoint" />
            <mxPoint x="440" y="150" as="targetPoint" />
          </mxGeometry>
        </mxCell>
        <mxCell id="KiQfL299b6SE2R_KNF0I-7" value="" style="endArrow=classic;html=1;rounded=0;" edge="1" parent="WIyWlLk6GJQsqaUBKTNV-1" source="KiQfL299b6SE2R_KNF0I-3" target="WIyWlLk6GJQsqaUBKTNV-6">
          <mxGeometry width="50" height="50" relative="1" as="geometry">
            <mxPoint x="390" y="400" as="sourcePoint" />
            <mxPoint x="440" y="350" as="targetPoint" />
          </mxGeometry>
        </mxCell>
        <mxCell id="KiQfL299b6SE2R_KNF0I-17" value="Archivo sea Markdown .md, .mkd, .mdown, .mdtext, .markdown,&lt;br&gt;&amp;nbsp;.text" style="rhombus;whiteSpace=wrap;html=1;fillColor=#d5e8d4;strokeColor=#82b366;" vertex="1" parent="WIyWlLk6GJQsqaUBKTNV-1">
          <mxGeometry x="203.72" y="580" width="150" height="158.33" as="geometry" />
        </mxCell>
        <mxCell id="KiQfL299b6SE2R_KNF0I-18" value="No" style="rounded=0;html=1;jettySize=auto;orthogonalLoop=1;fontSize=11;endArrow=block;endFill=0;endSize=8;strokeWidth=1;shadow=0;labelBackgroundColor=none;edgeStyle=orthogonalEdgeStyle;exitX=0;exitY=0.5;exitDx=0;exitDy=0;entryX=0.5;entryY=1;entryDx=0;entryDy=0;" edge="1" parent="WIyWlLk6GJQsqaUBKTNV-1" source="KiQfL299b6SE2R_KNF0I-17" target="WIyWlLk6GJQsqaUBKTNV-11">
          <mxGeometry x="0.3333" y="20" relative="1" as="geometry">
            <mxPoint as="offset" />
            <mxPoint x="200" y="660" as="sourcePoint" />
            <mxPoint x="170" y="730" as="targetPoint" />
          </mxGeometry>
        </mxCell>
        <mxCell id="KiQfL299b6SE2R_KNF0I-23" value="Leer el contenido del archivo promises.readFile" style="rounded=0;whiteSpace=wrap;html=1;fillColor=#dae8fc;strokeColor=#6c8ebf;" vertex="1" parent="WIyWlLk6GJQsqaUBKTNV-1">
          <mxGeometry x="332" y="760" width="120" height="60" as="geometry" />
        </mxCell>
        <mxCell id="KiQfL299b6SE2R_KNF0I-24" value="Yes" style="edgeStyle=orthogonalEdgeStyle;rounded=0;html=1;jettySize=auto;orthogonalLoop=1;fontSize=11;endArrow=block;endFill=0;endSize=8;strokeWidth=1;shadow=0;labelBackgroundColor=none;entryX=0.5;entryY=0;entryDx=0;entryDy=0;" edge="1" parent="WIyWlLk6GJQsqaUBKTNV-1" target="KiQfL299b6SE2R_KNF0I-23">
          <mxGeometry y="10" relative="1" as="geometry">
            <mxPoint as="offset" />
            <mxPoint x="278.22" y="738.33" as="sourcePoint" />
            <mxPoint x="278.22" y="778.33" as="targetPoint" />
          </mxGeometry>
        </mxCell>
        <mxCell id="KiQfL299b6SE2R_KNF0I-25" value="Buscar y extraer los enlaces (links)" style="rounded=0;whiteSpace=wrap;html=1;fillColor=#dae8fc;strokeColor=#6c8ebf;" vertex="1" parent="WIyWlLk6GJQsqaUBKTNV-1">
          <mxGeometry x="332" y="850" width="120" height="60" as="geometry" />
        </mxCell>
        <mxCell id="KiQfL299b6SE2R_KNF0I-26" value="Almacenar en un arreglo" style="rounded=0;whiteSpace=wrap;html=1;fillColor=#dae8fc;strokeColor=#6c8ebf;" vertex="1" parent="WIyWlLk6GJQsqaUBKTNV-1">
          <mxGeometry x="332" y="930" width="120" height="60" as="geometry" />
        </mxCell>
        <mxCell id="KiQfL299b6SE2R_KNF0I-27" value="Devolver lista de enlaces, resolver promesa" style="rounded=0;whiteSpace=wrap;html=1;fillColor=#dae8fc;strokeColor=#6c8ebf;" vertex="1" parent="WIyWlLk6GJQsqaUBKTNV-1">
          <mxGeometry x="332" y="1010" width="120" height="60" as="geometry" />
        </mxCell>
        <mxCell id="KiQfL299b6SE2R_KNF0I-28" value="Fin" style="rounded=1;whiteSpace=wrap;html=1;fontSize=12;glass=0;strokeWidth=1;shadow=0;fillColor=#d5e8d4;strokeColor=#82b366;" vertex="1" parent="WIyWlLk6GJQsqaUBKTNV-1">
          <mxGeometry x="332" y="1100" width="120" height="40" as="geometry" />
        </mxCell>
        <mxCell id="KiQfL299b6SE2R_KNF0I-29" value="" style="endArrow=classic;html=1;rounded=0;" edge="1" parent="WIyWlLk6GJQsqaUBKTNV-1" source="KiQfL299b6SE2R_KNF0I-23" target="KiQfL299b6SE2R_KNF0I-25">
          <mxGeometry width="50" height="50" relative="1" as="geometry">
            <mxPoint x="240" y="800" as="sourcePoint" />
            <mxPoint x="290" y="750" as="targetPoint" />
          </mxGeometry>
        </mxCell>
        <mxCell id="KiQfL299b6SE2R_KNF0I-30" value="" style="endArrow=classic;html=1;rounded=0;exitX=0.5;exitY=1;exitDx=0;exitDy=0;" edge="1" parent="WIyWlLk6GJQsqaUBKTNV-1" source="KiQfL299b6SE2R_KNF0I-25" target="KiQfL299b6SE2R_KNF0I-26">
          <mxGeometry width="50" height="50" relative="1" as="geometry">
            <mxPoint x="240" y="1000" as="sourcePoint" />
            <mxPoint x="290" y="950" as="targetPoint" />
          </mxGeometry>
        </mxCell>
        <mxCell id="KiQfL299b6SE2R_KNF0I-31" value="" style="endArrow=classic;html=1;rounded=0;" edge="1" parent="WIyWlLk6GJQsqaUBKTNV-1" source="KiQfL299b6SE2R_KNF0I-26" target="KiQfL299b6SE2R_KNF0I-27">
          <mxGeometry width="50" height="50" relative="1" as="geometry">
            <mxPoint x="240" y="1000" as="sourcePoint" />
            <mxPoint x="290" y="950" as="targetPoint" />
          </mxGeometry>
        </mxCell>
        <mxCell id="KiQfL299b6SE2R_KNF0I-32" value="" style="endArrow=classic;html=1;rounded=0;" edge="1" parent="WIyWlLk6GJQsqaUBKTNV-1" source="KiQfL299b6SE2R_KNF0I-27" target="KiQfL299b6SE2R_KNF0I-28">
          <mxGeometry width="50" height="50" relative="1" as="geometry">
            <mxPoint x="240" y="1200" as="sourcePoint" />
            <mxPoint x="290" y="1150" as="targetPoint" />
          </mxGeometry>
        </mxCell>
        <mxCell id="KiQfL299b6SE2R_KNF0I-33" value="" style="endArrow=classic;html=1;rounded=0;exitX=0.565;exitY=0.987;exitDx=0;exitDy=0;exitPerimeter=0;" edge="1" parent="WIyWlLk6GJQsqaUBKTNV-1" source="WIyWlLk6GJQsqaUBKTNV-7" target="WIyWlLk6GJQsqaUBKTNV-10">
          <mxGeometry width="50" height="50" relative="1" as="geometry">
            <mxPoint x="590" y="420" as="sourcePoint" />
            <mxPoint x="290" y="450" as="targetPoint" />
            <Array as="points">
              <mxPoint x="600" y="480" />
            </Array>
          </mxGeometry>
        </mxCell>
        <mxCell id="KiQfL299b6SE2R_KNF0I-34" value="" style="endArrow=classic;html=1;rounded=0;entryX=0;entryY=0.5;entryDx=0;entryDy=0;exitX=0;exitY=0.5;exitDx=0;exitDy=0;" edge="1" parent="WIyWlLk6GJQsqaUBKTNV-1" source="WIyWlLk6GJQsqaUBKTNV-11" target="KiQfL299b6SE2R_KNF0I-28">
          <mxGeometry width="50" height="50" relative="1" as="geometry">
            <mxPoint x="240" y="800" as="sourcePoint" />
            <mxPoint x="290" y="750" as="targetPoint" />
            <Array as="points">
              <mxPoint x="40" y="880" />
              <mxPoint x="40" y="1120" />
            </Array>
          </mxGeometry>
        </mxCell>
      </root>
    </mxGraphModel>
  </diagram>
</mxfile>
